<?xml version="1.0" standalone="no"?>
<!DOCTYPE svg PUBLIC "-//W3C//DTD SVG 20010904//EN"
 "http://www.w3.org/TR/2001/REC-SVG-20010904/DTD/svg10.dtd">
<svg version="1.0" xmlns="http://www.w3.org/2000/svg"
 width="2048.000000pt" height="1373.000000pt" viewBox="0 0 2048.000000 1373.000000"
 preserveAspectRatio="xMidYMid meet">
<metadata>
Created by potrace 1.16, written by Peter Selinger 2001-2019
</metadata>
<g transform="translate(0.000000,1373.000000) scale(0.100000,-0.100000)"
fill="#000000" stroke="none">
<path d="M6448 8455 c-2 -2 -21 -6 -43 -9 -91 -14 -150 -29 -213 -55 -102 -43
-166 -74 -181 -89 -7 -7 -20 -11 -28 -8 -8 3 -12 2 -9 -2 3 -5 -9 -17 -27 -27
-18 -10 -36 -24 -40 -32 -4 -7 -13 -13 -18 -13 -11 0 -199 -185 -199 -196 0
-3 -13 -23 -29 -43 -15 -20 -43 -62 -61 -94 -18 -32 -36 -54 -42 -50 -6 3 -8
1 -5 -4 4 -6 -3 -33 -15 -59 -12 -27 -23 -53 -25 -59 -1 -5 -18 -61 -37 -123
-19 -62 -35 -115 -35 -117 -1 -3 -1 -6 -2 -7 -1 -4 -8 -50 -13 -88 -10 -69 -5
-332 6 -340 3 -3 9 -30 13 -60 4 -30 11 -62 16 -71 4 -9 10 -27 12 -40 11 -57
62 -188 93 -236 19 -29 32 -53 29 -53 -2 0 9 -15 26 -32 33 -36 38 -74 12 -82
-10 -3 -23 -18 -30 -32 -7 -15 -10 -24 -7 -21 7 7 29 -12 33 -28 5 -19 23 -35
34 -28 6 3 7 1 3 -5 -4 -7 -2 -13 3 -13 6 -1 16 -3 21 -4 6 -1 13 -3 17 -4 4
0 2 -6 -5 -13 -14 -14 -17 -82 -3 -74 4 3 7 16 6 29 -2 14 2 24 11 24 7 0 13
-3 12 -6 -2 -18 3 -32 10 -27 4 2 14 0 22 -5 22 -14 -1 -25 -49 -24 -27 1 -37
-3 -34 -11 3 -7 12 -10 21 -6 14 5 14 3 -2 -13 -18 -18 -18 -19 0 -32 10 -7
13 -13 7 -13 -15 0 -36 27 -29 39 4 5 2 12 -3 15 -15 10 -22 -25 -9 -42 8 -10
9 -13 2 -9 -7 4 -14 0 -18 -8 -6 -17 -26 -20 -26 -4 0 5 4 8 9 5 5 -3 11 1 15
9 6 17 -9 21 -19 5 -4 -6 -10 -8 -15 -5 -5 3 -7 -7 -4 -21 4 -24 3 -26 -11
-14 -14 12 -16 12 -14 -1 4 -26 -12 -51 -26 -39 -9 8 -14 6 -19 -5 -3 -9 -11
-13 -17 -9 -7 4 -9 3 -6 -3 4 -6 -2 -21 -13 -33 -14 -16 -17 -27 -10 -35 6 -7
7 -21 3 -31 -7 -22 -53 -79 -53 -68 0 4 -6 0 -13 -11 -8 -10 -19 -15 -25 -11
-15 9 -16 26 -1 26 5 0 7 -4 4 -10 -11 -18 3 -10 33 18 51 47 66 95 25 77 -10
-5 -21 -8 -25 -7 -4 1 -4 -6 -1 -15 4 -11 3 -14 -6 -9 -7 5 -10 2 -9 -6 2 -8
-5 -12 -17 -11 -20 1 -20 1 -1 -13 19 -14 19 -14 -1 -14 -27 0 -38 -17 -23
-35 12 -15 -3 -31 -19 -20 -5 3 -12 1 -16 -4 -3 -5 -15 -8 -26 -6 -16 3 -18 1
-10 -9 8 -10 5 -16 -14 -24 -25 -11 -34 -32 -15 -32 6 0 10 -5 10 -10 0 -7 -6
-7 -18 -1 -15 8 -23 4 -40 -19 -12 -16 -22 -34 -22 -40 0 -5 -5 -10 -11 -10
-5 0 -7 6 -3 13 4 7 3 9 -2 4 -5 -5 -9 -14 -9 -20 0 -7 -5 -12 -12 -12 -6 0
-15 -4 -20 -9 -5 -5 -2 -6 6 -1 9 5 12 3 9 -6 -3 -8 -12 -14 -21 -14 -9 0 -16
-4 -14 -8 1 -5 -9 -15 -23 -24 -15 -8 -17 -12 -6 -8 16 5 17 3 6 -10 -7 -9
-15 -13 -18 -10 -3 3 -16 -5 -30 -17 -13 -13 -27 -23 -30 -23 -4 0 -6 -3 -4
-7 1 -5 -3 -8 -9 -8 -5 0 -7 -4 -4 -10 3 -5 -1 -10 -9 -10 -10 0 -13 -8 -10
-27 3 -20 2 -24 -5 -14 -8 12 -12 13 -26 1 -11 -9 -19 -10 -26 -3 -8 8 -7 13
2 18 8 6 10 4 4 -5 -5 -8 -3 -11 5 -8 8 2 15 9 17 14 5 14 -28 14 -46 0 -11
-8 -13 -8 -8 0 4 7 0 14 -8 18 -8 3 -15 10 -15 16 0 6 7 4 16 -4 20 -20 24
-20 24 1 0 9 -3 13 -7 9 -4 -3 -13 4 -20 16 -7 13 -12 17 -13 11 0 -7 -4 -13
-10 -13 -5 0 -6 7 -3 17 4 10 2 14 -5 9 -12 -7 -38 32 -28 42 3 3 6 0 6 -7 0
-7 4 -9 10 -6 5 3 7 0 4 -8 -3 -8 2 -14 11 -14 9 0 14 6 11 14 -4 9 -1 11 6 7
7 -5 9 -2 5 9 -4 12 -2 14 10 10 11 -4 14 -3 9 5 -4 7 0 15 11 19 27 9 53 34
47 44 -3 5 2 12 10 15 9 3 16 10 16 15 0 6 -7 6 -17 0 -15 -7 -54 -8 -72 -2
-2 0 2 8 9 16 20 24 3 17 -24 -10 -14 -13 -21 -27 -17 -30 5 -2 9 -17 9 -31 0
-22 -2 -24 -10 -10 -5 9 -6 21 -3 26 3 6 2 10 -3 10 -16 0 -21 -27 -9 -40 9
-10 9 -11 -3 -4 -28 16 -47 14 -25 -3 19 -15 19 -15 -5 -8 -20 7 -23 5 -14 -6
18 -24 12 -54 -11 -51 -16 3 -18 1 -7 -9 15 -16 16 -29 1 -29 -5 0 -8 4 -4 9
3 5 1 12 -5 16 -14 9 -1 28 15 21 9 -3 13 2 12 15 -1 20 -17 27 -17 8 0 -8 -4
-8 -12 -1 -14 11 -15 4 -18 -92 -1 -27 3 -52 7 -55 5 -3 8 -16 7 -28 -1 -12 3
-20 7 -17 5 3 14 -6 21 -20 9 -20 14 -23 25 -14 7 6 16 8 20 4 3 -3 2 -6 -4
-6 -6 0 -14 -7 -17 -16 -6 -15 -4 -15 10 -3 16 13 16 12 4 -11 -12 -22 -12
-24 3 -12 13 11 16 10 22 -9 l8 -23 18 23 c10 12 23 20 29 16 12 -8 13 -32 1
-39 -5 -4 -7 4 -3 16 5 21 4 22 -11 9 -12 -9 -14 -17 -7 -26 5 -6 7 -14 4 -18
-3 -3 3 -3 15 0 12 3 21 1 21 -6 0 -6 3 -10 8 -10 24 4 42 -2 36 -13 -5 -8 -3
-8 7 -2 8 5 25 9 39 10 52 2 61 4 55 14 -5 8 -11 7 -21 -1 -10 -8 -14 -8 -14
0 0 6 5 11 11 11 5 0 7 6 3 13 -6 10 -4 10 7 0 20 -20 57 -15 69 7 6 11 16 17
22 14 7 -4 8 -3 4 4 -3 6 3 16 14 22 23 12 27 30 6 30 -8 0 -17 4 -21 9 -3 6
6 6 25 1 17 -5 32 -5 35 1 4 5 3 9 -2 9 -4 0 3 7 15 16 23 16 30 39 10 31 -7
-2 -12 -10 -10 -16 1 -6 -2 -11 -8 -11 -16 0 -12 27 5 34 8 3 22 3 30 0 8 -4
15 -1 15 5 0 6 -7 11 -17 11 -23 0 -12 9 18 13 13 2 24 10 24 18 1 8 5 13 10
13 6 -1 20 11 33 26 20 25 21 30 7 43 -22 23 -18 33 5 12 19 -17 20 -17 20 1
0 14 2 16 9 6 6 -10 10 -8 14 8 4 14 10 19 18 14 7 -4 10 -3 5 4 -7 12 39 63
50 53 4 -3 4 0 0 7 -4 6 -2 12 3 12 6 0 11 7 11 16 0 8 5 12 10 9 6 -3 10 -2
10 4 0 5 -6 12 -12 14 -7 3 -3 6 9 6 29 1 37 16 10 18 -12 1 -31 14 -43 28
l-20 26 -14 -26 c-7 -14 -15 -23 -17 -21 -3 2 3 16 12 30 18 26 45 25 45 -2 0
-13 3 -12 15 4 8 10 15 15 15 11 0 -8 30 18 30 26 0 2 -11 5 -25 5 -13 0 -22
-4 -19 -9 3 -5 0 -9 -6 -9 -7 0 -9 7 -6 16 3 9 6 18 6 20 0 3 6 2 13 -3 12 -7
15 -8 46 -11 11 -2 8 -9 -9 -27 -13 -14 -19 -25 -12 -25 13 0 42 28 42 41 0 5
5 9 10 9 14 0 -18 -47 -37 -54 -8 -4 -21 -2 -28 4 -9 8 -14 6 -18 -4 -13 -32
56 -22 76 11 5 7 12 11 18 8 5 -3 6 1 3 9 -3 8 3 23 14 34 18 18 19 21 4 36
-9 9 -11 16 -5 16 6 0 13 -6 16 -12 2 -7 8 -10 12 -6 4 4 2 14 -5 23 -7 9 -8
15 -2 15 6 0 12 -5 14 -12 3 -8 11 -7 27 4 14 10 18 18 12 23 -6 3 -9 10 -6
15 3 5 1 11 -5 15 -10 6 -14 -7 -11 -34 2 -7 -2 -10 -8 -6 -15 8 -14 17 3 40
14 19 15 19 33 -4 15 -19 22 -21 28 -11 6 9 4 11 -6 6 -8 -4 -6 -1 4 7 9 8 17
19 17 25 0 5 8 13 17 16 12 5 13 10 5 18 -6 6 -8 18 -4 27 5 14 4 14 -11 2 -9
-7 -17 -10 -17 -7 0 11 28 37 37 34 4 -1 22 1 40 5 27 5 31 10 29 34 -4 35
-21 41 -22 8 -1 -15 2 -22 9 -18 6 3 7 1 3 -6 -11 -17 -28 -2 -21 19 8 26 -32
34 -45 9 -7 -13 -7 -19 0 -19 5 0 10 5 10 10 0 6 5 10 11 10 8 0 8 -4 0 -14
-7 -8 -8 -16 -4 -18 4 -3 2 -3 -5 -1 -8 2 -25 -6 -39 -17 -14 -11 -31 -20 -37
-20 -6 0 -2 6 9 12 47 27 55 66 18 83 -25 11 -32 28 -8 19 11 -5 13 -2 9 10
-3 9 -1 16 6 16 6 0 9 -4 6 -9 -3 -5 1 -11 9 -14 8 -4 12 -1 9 6 -2 7 4 17 15
24 15 10 20 9 25 -2 3 -9 0 -12 -8 -9 -9 3 -13 -3 -12 -18 1 -17 7 -23 26 -24
48 -2 52 -4 46 -19 -3 -8 -1 -15 4 -15 6 0 10 5 10 11 0 5 4 8 9 5 5 -3 11 1
15 9 3 8 16 20 30 26 20 9 29 8 53 -8 46 -32 143 -83 159 -83 8 0 14 -4 14 -8
0 -4 20 -14 45 -21 25 -7 42 -17 39 -22 -3 -5 1 -6 9 -3 8 3 31 -2 51 -10 20
-8 34 -11 30 -5 -4 8 -1 8 13 0 45 -24 266 -39 383 -25 30 3 69 7 85 9 83 9
166 39 310 112 39 19 78 42 87 50 9 8 22 12 30 7 7 -4 10 -4 6 1 -4 4 16 25
44 47 27 22 59 49 69 59 10 10 24 19 31 19 6 0 9 3 5 6 -3 4 14 27 38 53 24
25 66 76 93 113 27 37 53 64 57 60 5 -4 6 -2 2 3 -3 6 9 40 27 75 17 36 43 94
56 130 13 36 28 71 33 78 5 6 6 12 3 12 -4 0 -2 8 3 19 6 10 12 33 13 50 1 17
5 31 8 31 3 0 6 10 7 23 0 12 4 38 7 57 3 19 8 84 11 143 3 59 6 111 6 115 1
4 0 9 -1 12 -1 3 -4 28 -6 55 -2 28 -9 70 -14 95 -6 25 -12 56 -14 70 -2 14
-9 38 -15 54 -7 16 -10 35 -7 42 3 7 0 14 -5 16 -5 2 -11 13 -12 26 0 12 -5
22 -9 22 -4 0 -8 7 -8 15 0 9 -19 55 -42 103 -55 113 -124 214 -204 298 -23
24 -39 46 -36 49 3 3 0 5 -6 5 -19 0 -75 58 -67 69 3 6 0 8 -8 5 -8 -3 -21 2
-30 10 -9 9 -18 16 -22 16 -11 0 -34 27 -30 34 3 3 2 4 -1 1 -10 -7 -64 24
-64 37 0 6 -3 8 -7 5 -3 -4 -22 3 -42 15 -20 13 -38 22 -41 22 -3 -1 -21 5
-40 14 -55 23 -115 45 -115 42 0 -1 -12 3 -28 9 -15 6 -40 13 -55 16 -15 3
-38 8 -52 11 -28 6 -306 14 -312 9z m477 -183 c-3 -3 -11 0 -18 7 -9 10 -8 11
6 5 10 -3 15 -9 12 -12z m51 -18 c18 -14 18 -14 -6 -3 -31 14 -36 19 -24 19 6
0 19 -7 30 -16z m-233 -43 c15 -6 27 -9 27 -6 0 2 37 -9 82 -26 73 -26 109
-44 187 -90 43 -25 81 -62 74 -72 -4 -6 -1 -7 6 -3 20 13 176 -150 192 -199 1
-5 11 -19 21 -29 10 -11 18 -26 18 -33 0 -8 8 -25 17 -40 25 -38 63 -135 57
-145 -3 -4 0 -8 7 -8 7 0 9 -10 7 -25 -3 -13 -1 -22 3 -19 5 3 9 -5 10 -18 0
-13 3 -32 5 -43 23 -97 22 -294 -2 -395 -3 -14 -6 -31 -6 -37 -1 -7 -5 -13
-10 -13 -5 0 -7 -4 -3 -9 7 -12 -33 -134 -47 -142 -5 -3 -9 -9 -9 -13 2 -11
-48 -104 -59 -111 -6 -4 -8 -11 -5 -16 4 -5 1 -9 -5 -9 -6 0 -8 -4 -5 -10 3
-5 -1 -10 -10 -10 -9 0 -14 -4 -10 -9 8 -13 -162 -184 -175 -176 -6 3 -9 2 -8
-3 4 -15 -81 -74 -94 -66 -7 4 -8 3 -4 -4 6 -11 0 -14 -20 -11 -4 0 -10 -3
-13 -8 -16 -23 -178 -78 -271 -91 -113 -16 -293 4 -386 43 -19 8 -34 12 -34
10 0 -9 -167 81 -203 109 -20 16 -34 33 -30 39 3 6 1 7 -5 3 -7 -4 -39 21 -77
59 -36 36 -62 65 -58 65 4 0 3 4 -2 8 -22 16 -131 182 -120 182 3 0 -7 26 -21
58 -56 125 -79 232 -78 377 1 79 9 180 14 180 1 0 4 13 6 28 7 59 99 298 123
317 3 3 19 25 36 50 57 88 241 253 281 253 7 0 11 4 9 8 -7 10 25 20 37 12 6
-3 8 -1 5 4 -7 10 20 28 36 25 4 -1 7 3 7 8 0 6 3 9 8 8 4 -1 21 4 37 11 28
12 113 35 160 43 41 8 271 -1 298 -11z m317 4 c17 -9 30 -18 30 -21 0 -4 -59
23 -69 32 -10 9 13 3 39 -11z m71 -41 c7 -9 22 -20 34 -25 68 -30 163 -125
244 -245 38 -57 66 -104 62 -104 -10 0 -61 75 -61 89 0 5 -7 12 -16 15 -9 4
-15 9 -12 12 6 5 -23 41 -89 109 -23 24 -39 46 -36 49 4 3 -1 6 -11 6 -9 0
-19 7 -22 15 -4 8 -10 12 -15 9 -5 -3 -9 -1 -9 3 0 5 -18 19 -40 33 -22 14
-40 28 -40 33 0 4 -4 5 -10 2 -5 -3 -10 -1 -10 4 0 16 16 13 31 -5z m372 -437
c-3 -5 -11 4 -19 18 -20 38 -17 45 5 15 11 -13 17 -28 14 -33z m-1677 -1539
c4 -7 4 -10 -1 -6 -4 4 -14 3 -22 -3 -8 -8 -13 -8 -13 -1 0 6 6 13 13 15 6 3
13 6 14 6 1 1 5 -5 9 -11z m-105 -57 c-7 -5 -12 -12 -10 -17 1 -5 -10 -15 -25
-22 -14 -7 -26 -18 -26 -23 0 -6 4 -7 10 -4 5 3 15 -4 21 -17 6 -13 19 -25 30
-25 12 -1 17 3 13 9 -4 7 -2 8 5 4 17 -11 4 -25 -20 -23 -12 1 -26 12 -32 24
-5 12 -14 20 -18 17 -5 -3 -14 6 -20 20 -8 16 -17 23 -28 19 -13 -5 -14 -4 -3
8 11 12 15 12 25 -2 9 -12 17 -13 33 -4 23 11 21 35 -2 35 -9 0 -12 -4 -9 -10
3 -5 1 -10 -5 -10 -7 0 -10 6 -7 13 2 6 15 12 30 12 14 0 29 3 33 8 4 4 10 5
13 1 3 -3 0 -9 -8 -13z m-109 -59 c-7 -2 -10 -8 -7 -13 4 -5 0 -6 -7 -4 -9 4
-14 -2 -15 -16 -2 -17 1 -18 13 -9 10 9 14 9 14 1 0 -6 -4 -11 -10 -11 -5 0
-13 0 -17 0 -14 0 -11 42 3 47 8 3 11 9 8 14 -3 5 3 6 12 2 11 -4 13 -8 6 -11z
m-59 -16 c4 -11 1 -13 -10 -9 -11 4 -14 2 -9 -5 4 -7 2 -12 -3 -12 -14 0 -14
13 1 28 15 15 15 15 21 -2z m80 -3 c-4 -11 -3 -14 5 -9 8 5 10 2 5 -10 -5 -15
-7 -15 -15 0 -5 9 -6 21 -3 26 10 16 15 12 8 -7z m29 -35 c-7 -7 -12 -8 -12
-2 0 14 12 26 19 19 2 -3 -1 -11 -7 -17z m-109 -5 c-4 -10 -2 -14 5 -9 6 3 13
2 17 -4 4 -6 12 -7 18 -4 7 4 4 -2 -6 -12 -17 -18 -19 -18 -31 -2 -7 10 -17
14 -21 10 -4 -4 -2 3 4 16 14 26 23 30 14 5z m-31 0 c-6 -2 -10 -9 -7 -14 4
-5 -1 -6 -10 -2 -13 5 -14 7 -3 14 7 5 18 8 23 8 6 0 4 -3 -3 -6z m108 -13 c0
-5 -4 -10 -10 -10 -5 0 -10 5 -10 10 0 6 5 10 10 10 6 0 10 -4 10 -10z m97 -6
c-3 -3 -12 -4 -19 -1 -8 3 -5 6 6 6 11 1 17 -2 13 -5z m-272 -44 c-9 -16 -18
-30 -21 -30 -2 0 2 14 11 30 9 17 18 30 21 30 2 0 -2 -13 -11 -30z m85 20 c8
-5 11 -13 6 -17 -5 -4 -11 -2 -13 5 -4 10 -8 10 -19 1 -12 -10 -13 -9 -8 5 7
18 13 20 34 6z m63 -7 c-7 -3 -22 -12 -34 -22 -18 -14 -20 -21 -10 -38 7 -15
17 -20 31 -16 11 3 20 0 20 -6 0 -6 -7 -8 -17 -4 -11 4 -14 3 -9 -5 4 -7 2
-12 -3 -12 -6 0 -11 5 -11 11 0 5 -5 7 -12 3 -6 -4 -8 -3 -5 3 9 14 -21 53
-40 53 -9 0 -14 -2 -11 -5 5 -6 -56 -75 -66 -75 -3 0 -6 5 -6 11 0 5 5 7 10 4
6 -3 10 -3 10 2 0 4 13 23 29 42 20 23 34 31 47 28 12 -4 30 3 49 18 16 13 32
21 35 18 3 -3 -1 -8 -7 -10z m40 10 c-7 -2 -13 -12 -13 -20 0 -9 -3 -14 -6
-10 -10 10 4 37 18 36 10 0 10 -2 1 -6z m-37 -32 c-4 -5 0 -12 6 -14 8 -3 6
-6 -4 -6 -18 -1 -24 10 -11 22 9 10 15 8 9 -2z m-29 -33 c-3 -8 -6 -5 -6 6 -1
11 2 17 5 13 3 -3 4 -12 1 -19z m-37 -30 c0 -5 -5 -8 -11 -8 -5 0 -7 5 -4 10
10 16 -12 12 -29 -5 -8 -8 -18 -15 -23 -15 -4 1 5 12 22 25 27 23 44 20 45 -7z
m-120 -32 c0 -2 -7 -6 -15 -10 -8 -3 -15 -1 -15 4 0 6 7 10 15 10 8 0 15 -2
15 -4z m-35 -48 c-2 -16 -8 -22 -21 -21 -13 1 -20 -5 -21 -18 -1 -11 2 -17 7
-14 5 3 14 -4 20 -15 7 -13 7 -20 0 -20 -5 0 -10 7 -10 15 0 8 -6 14 -12 13
-8 -2 -13 7 -13 22 1 19 6 25 21 23 14 -1 20 4 20 17 0 14 -5 18 -17 15 -10
-3 -20 -1 -24 4 -4 7 1 8 11 4 12 -5 15 -3 9 6 -6 10 -3 11 12 3 12 -7 19 -20
18 -34z m41 3 c-9 -14 -26 -14 -26 0 0 5 5 7 12 3 8 -5 9 -1 4 12 -5 14 -4 16
5 7 6 -6 8 -16 5 -22z m-116 -1 c0 -5 -5 -10 -11 -10 -5 0 -7 5 -4 10 3 6 8
10 11 10 2 0 4 -4 4 -10z m177 -62 c0 -18 -2 -25 -4 -15 -3 9 -9 15 -14 11
-12 -7 -23 22 -15 42 10 26 33 -1 33 -38z m-177 13 c-6 -12 -15 -19 -21 -16
-5 4 -9 2 -9 -3 0 -20 -41 -61 -56 -55 -12 4 -12 7 3 18 10 7 22 11 27 7 5 -3
7 2 3 12 -4 9 -3 15 2 12 5 -3 12 1 15 10 3 8 10 13 15 9 5 -3 13 4 16 16 4
11 9 18 12 16 2 -3 0 -15 -7 -26z m-62 -15 c-13 -12 -25 -20 -28 -18 -3 2 5
12 17 22 12 9 19 21 15 25 -4 5 -1 5 6 1 10 -6 8 -13 -10 -30z m157 24 c-27
-12 -43 -12 -25 0 8 5 22 9 30 9 10 0 8 -3 -5 -9z m13 -49 c-13 -22 -28 -28
-28 -12 0 5 7 11 15 15 8 3 15 11 15 17 0 8 -4 8 -15 -1 -9 -8 -15 -8 -15 -2
0 13 23 22 33 12 5 -4 3 -17 -5 -29z m-127 -10 c-6 -10 -7 -21 -4 -25 3 -3 1
-6 -5 -6 -7 0 -12 3 -12 6 0 9 20 44 26 44 2 0 0 -8 -5 -19z m55 10 c-3 -4 6
-13 20 -20 14 -6 22 -16 19 -21 -3 -6 3 -10 14 -10 12 0 20 6 19 13 -2 6 3 12
11 12 8 0 15 -6 17 -13 1 -7 0 -8 -3 -2 -7 14 -23 12 -20 -2 1 -8 -8 -13 -23
-13 -16 0 -24 5 -22 14 2 9 -3 11 -13 7 -9 -3 -14 -2 -11 3 3 5 -1 12 -10 15
-13 5 -12 26 2 26 3 0 3 -4 0 -9z m118 -11 c-6 -6 -15 -5 -24 1 -13 9 -12 10
3 5 9 -3 17 0 17 6 0 6 3 8 7 5 4 -4 2 -12 -3 -17z m-544 0 c13 -8 13 -10 -2
-10 -9 0 -20 5 -23 10 -8 13 5 13 25 0z m43 -13 c7 4 6 -1 -2 -10 -7 -9 -17
-14 -23 -11 -5 3 -15 0 -23 -6 -10 -8 -15 -9 -15 -2 0 6 9 14 20 17 11 3 20
12 21 18 0 8 2 8 6 -1 2 -6 10 -9 16 -5z m364 -3 c-3 -3 -12 -4 -19 -1 -8 3
-5 6 6 6 11 1 17 -2 13 -5z m-107 -26 c0 -6 -3 -8 -6 -5 -4 3 -16 2 -28 -4
-20 -10 -20 -10 -2 5 24 19 36 20 36 4z m49 -7 c9 -15 7 -18 -11 -17 -12 0
-23 7 -24 14 -1 7 0 8 3 2 8 -16 23 -12 17 5 -9 21 3 19 15 -4z m73 -6 c-3
-16 -2 -17 12 -6 9 8 16 9 16 4 0 -6 -15 -18 -34 -28 -19 -11 -33 -23 -30 -27
3 -4 0 -8 -5 -8 -16 0 -13 20 4 26 8 4 12 10 9 15 -3 5 1 6 8 4 9 -4 14 2 14
14 0 12 -7 19 -18 18 -10 -1 -18 -9 -18 -19 0 -9 -4 -20 -10 -23 -5 -3 -8 1
-5 9 3 9 7 22 9 30 2 7 15 13 28 12 17 -1 22 -6 20 -21z m-199 -20 c-7 -21
-12 -19 -10 4 0 11 5 18 9 15 4 -3 5 -11 1 -19z m64 -5 c-1 -11 -5 -20 -9 -20
-3 0 -6 9 -5 20 1 11 5 20 9 20 3 0 6 -9 5 -20z m203 15 c0 -2 -10 -9 -22 -15
-22 -11 -22 -10 -4 4 21 17 26 19 26 11z m-230 -16 c0 -5 -4 -7 -10 -4 -5 3
-10 -2 -10 -11 0 -10 -3 -15 -6 -11 -9 9 3 37 16 37 5 0 10 -5 10 -11z m70 -5
c0 -2 -7 -4 -15 -4 -8 0 -15 4 -15 10 0 5 7 7 15 4 8 -4 15 -8 15 -10z m15
-13 c-3 -6 -11 -11 -16 -11 -5 0 -4 6 3 14 14 16 24 13 13 -3z m-133 -8 c-6
-2 -10 -9 -6 -14 3 -5 0 -9 -5 -9 -12 0 -14 13 -4 23 3 4 11 7 17 6 6 0 5 -3
-2 -6z m27 -29 c-35 -26 -49 -30 -49 -14 0 6 3 9 8 9 20 -3 32 2 26 13 -4 7
-3 8 5 4 6 -4 14 0 17 8 3 9 10 13 16 10 5 -3 -5 -17 -23 -30z m66 26 c-3 -5
-12 -10 -18 -10 -7 0 -6 4 3 10 19 12 23 12 15 0z m-126 -28 c0 -15 -1 -15 -8
1 -6 17 -8 17 -26 -3 -15 -17 -16 -21 -5 -19 19 3 50 -10 50 -22 0 -4 -10 -13
-21 -20 -13 -6 -19 -7 -15 -1 3 6 0 13 -6 16 -7 3 -2 3 12 -1 22 -5 23 -4 11
10 -10 13 -18 14 -32 6 -18 -9 -18 -12 -4 -32 8 -12 15 -26 15 -32 -1 -5 -8 4
-17 20 -17 31 -26 78 -13 70 4 -3 15 4 25 15 20 22 35 18 34 -8z m174 8 c-3
-12 0 -20 6 -20 7 0 10 4 7 9 -7 10 41 8 51 -3 3 -3 13 0 22 7 14 11 14 10 2
-5 -9 -12 -18 -15 -30 -9 -10 6 -23 6 -33 0 -26 -15 -50 -1 -37 22 13 25 18
24 12 -1z m72 10 c3 -5 2 -10 -4 -10 -5 0 -13 5 -16 10 -3 6 -2 10 4 10 5 0
13 -4 16 -10z m-101 -15 c-7 -18 -20 -19 -30 -3 -4 7 -3 8 4 4 7 -4 12 -2 12
3 0 6 4 11 10 11 5 0 7 -7 4 -15z m-400 -10 c-4 -8 -8 -15 -10 -15 -2 0 -4 7
-4 15 0 8 4 15 10 15 5 0 7 -7 4 -15z m353 9 c-3 -3 6 -17 20 -30 14 -13 21
-24 15 -24 -6 0 -16 8 -21 18 -6 9 -11 13 -11 7 0 -11 -20 15 -20 28 0 4 5 7
12 7 6 0 9 -3 5 -6z m-331 -43 c-4 -6 -13 -11 -19 -10 -9 0 -9 2 0 5 7 3 9 13
6 22 -5 13 -3 14 7 5 7 -6 9 -16 6 -22z m340 -21 c5 1 10 -4 12 -12 2 -9 0 -8
-7 2 -6 8 -11 11 -11 5 0 -5 -9 1 -19 14 -16 20 -21 22 -42 12 l-24 -12 25 20
25 20 16 -26 c9 -13 20 -24 25 -23z m48 34 c9 -3 13 -10 10 -15 -3 -5 1 -9 9
-9 8 0 17 7 21 15 3 8 13 14 23 14 17 -1 17 -2 0 -6 -9 -2 -15 -8 -12 -12 2
-5 -7 -13 -20 -19 -14 -7 -25 -7 -25 -2 0 4 -7 16 -16 24 -17 17 -14 19 10 10z
m-426 -16 c-5 -14 -48 -31 -48 -18 0 6 9 10 21 10 11 0 17 5 14 10 -3 6 -1 10
5 10 7 0 10 -5 8 -12z m66 -24 c6 -15 4 -15 -11 -3 -15 12 -16 12 -10 -3 9
-25 -52 -82 -70 -66 -8 6 -11 14 -7 17 4 3 9 0 11 -7 3 -6 9 -10 13 -7 5 3 7
12 4 19 -3 8 -1 17 5 20 6 4 8 13 4 21 -3 8 -1 15 5 15 11 0 10 -25 -1 -36
-17 -17 -5 -25 13 -9 11 10 17 22 14 26 -6 11 4 29 16 29 4 0 11 -7 14 -16z
m136 1 c11 -13 10 -14 -4 -9 -9 3 -16 10 -16 15 0 13 6 11 20 -6z m127 8 c-9
-2 -15 -8 -12 -13 3 -5 13 -6 23 -3 14 5 15 3 5 -8 -10 -9 -16 -10 -24 -2 -6
6 -18 9 -25 6 -8 -3 -14 0 -14 7 0 6 4 9 9 5 5 -3 12 -1 16 5 3 5 14 9 23 9
15 -1 15 -2 -1 -6z m93 -12 c0 -5 -13 -23 -30 -39 -35 -35 -41 -28 -7 8 12 14
21 28 20 32 -2 5 2 8 7 8 6 0 10 -4 10 -9z m-437 -24 c-7 -13 -10 -13 -23 1
-13 14 -12 15 3 9 10 -4 17 -2 17 5 0 6 3 9 6 5 3 -3 2 -12 -3 -20z m282 13
c-3 -5 -1 -10 4 -10 6 0 11 -5 11 -11 0 -8 -5 -8 -15 1 -13 11 -12 30 1 30 3
0 2 -4 -1 -10z m-160 -26 c9 -15 12 -23 6 -20 -6 4 -11 1 -11 -6 0 -10 -2 -10
-9 1 -5 8 -6 21 -3 30 5 14 3 14 -11 2 -10 -7 -17 -9 -17 -3 0 6 6 13 13 15 6
3 13 6 13 6 1 1 9 -11 19 -25z m103 13 c15 4 15 3 2 -6 -13 -9 -12 -11 5 -12
11 -1 26 -1 33 0 8 2 12 -5 10 -16 -3 -18 -29 -26 -27 -9 0 5 -10 14 -22 20
-12 6 -24 17 -25 24 -1 7 0 8 2 3 3 -6 13 -7 22 -4z m150 -13 c-7 -15 -14 -21
-16 -15 -2 7 2 18 8 26 18 22 21 18 8 -11z m-166 -36 c-13 -13 -32 -2 -32 18
0 8 -4 14 -10 14 -5 0 -10 5 -10 11 0 6 14 1 31 -12 20 -14 27 -25 21 -31z
m133 21 c-3 -4 3 -12 12 -18 10 -6 13 -11 7 -11 -15 0 -36 25 -27 33 3 4 1 7
-5 7 -7 0 -12 5 -12 11 0 8 5 8 15 -1 8 -7 12 -16 10 -21z m-245 -19 c13 -11
20 -23 17 -26 -4 -4 -15 4 -26 17 -18 22 -20 23 -38 8 -32 -28 -49 -32 -19 -5
35 31 37 31 66 6z m55 1 c-3 -6 -11 -11 -16 -11 -5 0 -4 6 3 14 14 16 24 13
13 -3z m165 9 c0 -5 -4 -10 -10 -10 -5 0 -10 5 -10 10 0 6 5 10 10 10 6 0 10
-4 10 -10z m85 -19 c-3 -6 -11 -11 -16 -11 -5 0 -4 6 3 14 14 16 24 13 13 -3z
m-328 -7 c-3 -4 4 -15 16 -26 12 -11 16 -17 10 -13 -7 3 -13 1 -13 -5 0 -7 -6
-10 -12 -8 -16 6 -21 58 -6 58 6 0 9 -3 5 -6z m113 -4 c8 -5 11 -10 5 -10 -5
0 -17 5 -25 10 -8 5 -10 10 -5 10 6 0 17 -5 25 -10z m46 1 c-4 -5 -3 -11 1
-14 5 -2 2 -2 -4 -1 -7 2 -13 -1 -13 -6 0 -6 -5 -10 -10 -10 -6 0 -5 8 2 20 7
11 16 20 21 20 4 0 6 -4 3 -9z m54 -1 c-8 -5 -19 -10 -25 -10 -5 0 -3 5 5 10
8 5 20 10 25 10 6 0 3 -5 -5 -10z m55 0 c4 -6 -1 -7 -12 -3 -16 6 -16 5 -4
-10 9 -11 10 -17 2 -17 -6 0 -11 4 -11 10 0 5 -6 7 -14 4 -20 -8 -8 -34 12
-27 15 4 15 3 2 -6 -8 -6 -11 -11 -6 -11 5 0 3 -7 -4 -15 -7 -8 -18 -15 -24
-15 -6 0 -4 6 5 13 15 11 15 15 3 32 -13 17 -12 21 8 37 27 20 34 22 43 8z
m-175 -17 c0 -3 -7 -3 -15 1 -8 3 -15 1 -15 -4 0 -6 -5 -10 -11 -10 -8 0 -8 4
1 14 10 13 40 12 40 -1z m190 -15 c0 -7 -12 -26 -26 -43 l-26 -30 21 32 c12
17 21 36 21 42 0 6 2 11 5 11 3 0 5 -6 5 -12z m-194 -13 c-8 -21 4 -46 18 -39
6 4 4 -1 -6 -11 -16 -18 -38 -13 -38 8 0 7 4 6 10 -3 5 -8 12 -12 15 -8 3 3
-1 13 -10 22 -9 9 -13 16 -8 16 4 0 1 5 -7 11 -13 9 -12 10 3 5 9 -3 17 -1 17
4 0 6 3 10 6 10 3 0 4 -7 0 -15z m80 -18 c-2 -18 -8 -42 -15 -53 -11 -17 -11
-17 -5 6 6 22 5 23 -10 11 -10 -9 -16 -10 -16 -2 0 10 13 15 33 12 4 0 7 4 7
9 0 6 -5 10 -11 10 -5 0 -8 4 -5 9 4 5 3 11 -1 14 -5 2 -2 2 5 1 6 -2 12 1 12
6 0 6 2 10 4 10 2 0 3 -15 2 -33z m-40 -5 c1 -7 0 -8 -3 -2 -2 5 -9 8 -14 4
-5 -3 -9 0 -9 6 0 15 23 7 26 -8z m74 8 c0 -5 -4 -10 -10 -10 -5 0 -10 5 -10
10 0 6 5 10 10 10 6 0 10 -4 10 -10z"/>
<path d="M6565 7988 c-4 -12 -7 -26 -6 -30 1 -5 -5 -8 -13 -8 -10 0 -13 -7
-11 -21 3 -17 1 -19 -10 -9 -10 8 -13 8 -11 -2 1 -7 5 -19 9 -25 6 -9 3 -11
-7 -7 -9 3 -17 1 -17 -5 -1 -6 -3 -15 -4 -21 -1 -5 -3 -15 -4 -22 0 -6 -4 -8
-7 -5 -4 4 -17 -16 -30 -44 -13 -28 -28 -48 -33 -45 -5 3 -7 -3 -4 -14 3 -12
-1 -22 -11 -26 -9 -3 -16 -15 -16 -25 0 -10 -4 -19 -10 -19 -5 0 -10 -9 -10
-21 0 -11 -4 -18 -9 -15 -5 3 -12 -5 -15 -19 -4 -14 -11 -25 -17 -25 -6 0 -7
-5 -4 -10 3 -6 0 -13 -9 -16 -8 -3 -13 -14 -11 -25 2 -11 0 -17 -4 -15 -8 6
-36 -43 -33 -57 1 -4 -9 -18 -23 -31 -13 -13 -22 -26 -18 -30 4 -3 -2 -13 -13
-21 -10 -8 -14 -15 -9 -15 6 0 4 -4 -3 -9 -7 -4 -14 -18 -15 -29 -1 -25 -7
-27 -26 -9 -11 10 -12 9 -5 -3 13 -23 12 -50 -3 -50 -7 0 -13 -7 -13 -16 0 -9
-5 -12 -12 -8 -6 4 -8 3 -5 -3 4 -6 0 -24 -8 -39 -8 -16 -15 -36 -15 -44 0
-13 -1 -13 -11 0 -9 12 -10 11 -6 -8 3 -12 1 -20 -4 -16 -5 3 -9 -3 -9 -13 0
-15 -2 -16 -10 -3 -5 8 -10 10 -10 5 0 -6 6 -17 13 -24 6 -8 8 -11 2 -9 -15 9
-35 -16 -35 -43 0 -5 -5 -7 -12 -3 -8 5 -9 2 -5 -10 4 -10 1 -19 -8 -22 -8 -4
-12 -10 -9 -15 3 -5 0 -9 -6 -9 -6 0 -9 -4 -6 -8 3 -5 -4 -14 -14 -22 -10 -8
-17 -17 -14 -22 3 -4 0 -8 -7 -8 -8 0 -8 -4 1 -15 11 -13 10 -14 -4 -9 -14 6
-21 -5 -17 -28 0 -5 -4 -8 -10 -8 -5 0 -8 -4 -5 -9 4 -5 0 -11 -6 -14 -33 -12
14 -20 92 -16 8 0 25 -2 38 -5 12 -2 22 -1 22 4 0 5 6 7 13 4 23 -9 107 -11
107 -3 0 4 15 3 32 -2 22 -6 34 -6 36 1 2 6 10 6 23 0 14 -8 19 -7 19 1 0 8 5
8 16 -2 13 -10 17 -10 25 2 5 8 9 9 9 4 0 -6 19 -9 46 -6 37 2 45 0 38 -10 -6
-11 -5 -12 7 -2 10 8 58 11 145 11 72 -1 136 2 142 6 7 4 12 2 12 -3 0 -6 -5
-11 -12 -11 -6 0 -8 -3 -5 -6 4 -4 13 -2 20 4 18 15 177 13 177 -2 0 -6 4 -5
9 3 5 7 13 11 19 7 6 -3 12 -1 14 5 3 8 9 6 20 -5 12 -12 18 -13 21 -3 4 9 8
8 16 -3 6 -8 11 -10 11 -4 0 13 48 25 54 15 7 -11 177 -4 189 8 8 8 7 11 -2
11 -8 0 -11 7 -8 19 3 14 1 18 -9 14 -8 -3 -14 1 -14 11 0 9 -5 16 -11 16 -5
0 -8 4 -4 9 3 5 1 12 -5 16 -6 4 -7 11 -4 17 4 6 3 9 -2 6 -5 -3 -15 0 -22 8
-7 8 -10 14 -6 14 3 0 0 8 -7 17 -9 11 -10 14 -2 9 9 -5 11 -2 7 8 -3 9 -10
13 -15 10 -8 -5 -14 18 -10 39 1 5 -3 6 -8 3 -5 -4 -15 7 -23 24 -7 16 -17 30
-21 30 -5 0 -5 5 -2 10 3 6 -1 13 -9 16 -9 3 -13 10 -10 15 3 5 0 9 -6 9 -7 0
-10 6 -7 14 3 8 1 17 -6 20 -9 3 -8 8 3 15 8 6 10 11 5 11 -6 0 -17 -6 -24
-12 -9 -9 -12 -9 -7 -1 3 6 -1 18 -9 26 -11 12 -12 17 -2 20 9 4 9 6 -1 6 -7
1 -10 6 -7 11 3 6 -1 10 -9 10 -14 0 -33 35 -28 53 1 4 -6 7 -15 7 -15 0 -16
2 -3 10 8 5 10 10 4 10 -5 0 -20 17 -31 38 -11 20 -37 67 -56 103 -20 36 -33
69 -29 73 4 4 0 6 -8 4 -8 -1 -14 3 -12 10 1 6 -3 12 -9 12 -6 0 -9 7 -6 15 4
8 1 17 -5 21 -7 5 -8 2 -3 -6 5 -9 4 -11 -3 -6 -7 4 -12 16 -12 27 0 10 -4 19
-10 19 -5 0 -10 7 -10 16 0 8 -7 22 -16 31 -8 9 -13 22 -10 30 3 8 2 12 -3 9
-4 -3 -14 6 -21 19 -7 14 -18 25 -24 25 -6 0 -4 5 4 10 11 7 11 10 2 10 -7 0
-10 5 -7 10 3 6 -1 10 -10 10 -9 0 -14 4 -10 9 3 5 -2 16 -10 24 -8 9 -15 23
-15 32 0 9 -4 13 -10 10 -5 -3 -10 1 -10 9 0 9 -5 16 -11 16 -5 0 -8 4 -5 9 3
4 -5 21 -18 36 l-23 27 -8 -24z m156 -711 c-10 -9 -11 -8 -5 6 3 10 9 15 12
12 3 -3 0 -11 -7 -18z m84 13 c3 -5 1 -10 -4 -10 -6 0 -11 5 -11 10 0 6 2 10
4 10 3 0 8 -4 11 -10z m45 -40 c0 -5 -4 -10 -10 -10 -5 0 -10 5 -10 10 0 6 5
10 10 10 6 0 10 -4 10 -10z m-129 -53 c-10 -9 -11 -8 -5 6 3 10 9 15 12 12 3
-3 0 -11 -7 -18z m84 13 c3 -5 1 -10 -4 -10 -6 0 -11 5 -11 10 0 6 2 10 4 10
3 0 8 -4 11 -10z m45 -40 c0 -5 -4 -10 -10 -10 -5 0 -10 5 -10 10 0 6 5 10 10
10 6 0 10 -4 10 -10z m-45 -40 c3 -5 1 -10 -4 -10 -6 0 -11 5 -11 10 0 6 2 10
4 10 3 0 8 -4 11 -10z m45 -40 c0 -5 -4 -10 -10 -10 -5 0 -10 5 -10 10 0 6 5
10 10 10 6 0 10 -4 10 -10z m-243 -45 c0 -8 -4 -12 -9 -9 -5 3 -6 10 -3 15 9
13 12 11 12 -6z m203 11 c0 -3 -4 -8 -10 -11 -5 -3 -10 -1 -10 4 0 6 5 11 10
11 6 0 10 -2 10 -4z m-567 -121 c-3 -9 -8 -14 -10 -11 -3 3 -2 9 2 15 9 16 15
13 8 -4z m322 -13 c-3 -3 -11 0 -18 7 -9 10 -8 11 6 5 10 -3 15 -9 12 -12z"/>
<path d="M6990 7311 c0 -6 4 -13 10 -16 6 -3 7 1 4 9 -7 18 -14 21 -14 7z"/>
<path d="M5560 6000 c0 -5 5 -10 11 -10 5 0 7 5 4 10 -3 6 -8 10 -11 10 -2 0
-4 -4 -4 -10z"/>
<path d="M5460 5770 c0 -19 3 -21 12 -12 9 9 9 15 0 24 -9 9 -12 7 -12 -12z"/>
<path d="M5065 5440 c-3 -5 -1 -10 4 -10 6 0 11 5 11 10 0 6 -2 10 -4 10 -3 0
-8 -4 -11 -10z"/>
<path d="M5000 5440 c0 -5 5 -10 11 -10 5 0 7 5 4 10 -3 6 -8 10 -11 10 -2 0
-4 -4 -4 -10z"/>
<path d="M4880 5379 c0 -5 5 -7 10 -4 6 3 10 8 10 11 0 2 -4 4 -10 4 -5 0 -10
-5 -10 -11z"/>
<path d="M4276 7873 c-4 -5 -101 -9 -214 -10 -114 -1 -210 -2 -215 -2 -4 -1
-5 -12 -3 -26 3 -13 0 -27 -5 -31 -5 -3 -6 -10 -2 -17 10 -16 10 -87 -1 -87
-4 0 -4 -6 1 -12 6 -7 9 -22 7 -33 -3 -11 -4 -27 -4 -35 0 -33 0 -81 0 -95 0
-8 0 -22 0 -30 0 -8 0 -22 0 -30 0 -8 0 -22 0 -30 0 -8 0 -21 -1 -27 0 -7 2
-25 4 -40 2 -16 0 -28 -5 -28 -5 0 -6 -5 -2 -12 11 -17 11 -138 0 -138 -5 0
-4 -6 1 -12 7 -11 8 -72 3 -163 -1 -5 1 -22 3 -37 3 -16 0 -28 -7 -28 -7 0 -8
-3 -1 -8 14 -9 14 -85 0 -94 -7 -5 -7 -8 0 -8 12 0 14 -119 2 -137 -5 -7 -4
-13 1 -13 10 0 9 -30 -2 -48 -4 -6 -3 -12 1 -12 5 0 9 -9 9 -20 0 -11 -4 -20
-9 -20 -5 0 -5 -6 2 -13 8 -10 7 -17 -1 -25 -9 -9 -9 -12 -1 -12 7 0 10 -8 8
-18 -7 -41 6 -44 155 -43 84 1 148 -3 155 -9 9 -7 16 -5 26 6 10 12 13 61 14
197 l0 182 30 2 c16 1 36 -3 44 -10 9 -8 12 -8 8 -1 -9 15 71 12 98 -4 11 -6
16 -12 11 -12 -5 0 2 -10 15 -23 13 -13 25 -30 27 -38 2 -7 8 -15 13 -17 5 -2
9 -8 9 -14 0 -6 12 -27 28 -47 28 -37 46 -65 58 -91 4 -8 13 -19 21 -23 7 -4
13 -15 13 -22 0 -8 5 -15 12 -15 6 0 9 -3 5 -6 -3 -4 0 -13 8 -20 7 -8 15 -19
17 -24 2 -8 56 -11 158 -12 102 0 160 -4 169 -11 12 -10 13 -9 7 1 -6 10 -1
13 20 12 16 -1 35 -2 41 -1 11 1 -179 284 -214 319 -20 20 -73 99 -73 109 0 4
13 14 30 21 41 18 125 96 161 149 51 73 71 145 73 258 3 121 -8 186 -40 247
-10 18 -17 36 -16 41 1 4 -2 7 -8 7 -5 0 -10 5 -10 11 0 7 -20 31 -44 55 -24
23 -42 45 -40 48 2 3 1 4 -2 1 -4 -2 -25 8 -48 24 -36 24 -70 42 -86 45 -3 1
-9 4 -15 7 -15 10 -78 23 -94 20 -7 -1 -11 1 -8 6 3 4 -14 9 -36 9 -122 4
-173 9 -179 18 -5 7 -8 7 -8 -1 0 -8 -14 -13 -36 -13 -21 0 -33 4 -29 10 7 12
2 13 -9 3z m39 -317 c8 -3 15 -2 15 2 0 10 42 8 58 -2 7 -4 12 -2 12 4 0 6 5
8 10 5 6 -4 25 -8 43 -10 34 -3 117 -36 117 -46 0 -3 9 -16 20 -29 22 -26 44
-95 35 -110 -3 -6 -1 -10 5 -10 6 0 8 -5 4 -11 -3 -6 -8 -31 -10 -55 -6 -73
-56 -125 -134 -139 -19 -4 -39 -8 -45 -9 -5 -1 -16 -5 -22 -9 -7 -5 -13 -5
-13 0 0 9 -123 8 -146 -1 -8 -3 -14 -2 -14 2 0 4 -12 8 -27 7 l-27 0 -1 185
c-1 117 3 190 9 199 8 11 8 13 -1 7 -14 -8 -16 -5 -8 16 5 13 89 16 120 4z"/>
<path d="M2625 7862 c-20 -3 -20 -10 -18 -693 1 -537 4 -694 13 -703 8 -7 11
-7 7 0 -4 7 28 11 106 11 62 1 135 1 163 2 l52 1 -2 110 c0 61 3 110 7 110 5
0 5 5 2 11 -4 6 -7 35 -8 66 0 54 14 80 37 66 8 -6 222 -4 286 2 37 3 139 34
187 57 23 11 44 18 45 16 7 -7 108 90 146 141 15 20 29 38 32 41 3 3 6 12 7
20 1 8 4 24 7 35 34 122 41 256 17 333 -5 18 -9 33 -9 35 4 9 -21 62 -53 112
-38 60 -96 112 -176 157 -35 20 -40 27 -30 38 10 12 9 12 -5 1 -13 -10 -26
-10 -50 -3 -32 10 -81 19 -162 28 -22 2 -42 6 -44 9 -3 2 -12 0 -22 -5 -10 -5
-20 -7 -23 -3 -6 6 -474 11 -512 5z m563 -303 c4 -1 12 -3 17 -4 36 -7 65 -18
65 -26 0 -5 6 -9 13 -9 7 0 24 -15 37 -32 24 -33 31 -48 33 -80 1 -10 4 -18 7
-18 4 0 5 -102 1 -117 -1 -2 -1 -6 -2 -10 -3 -24 -64 -95 -73 -86 -3 4 -6 2
-6 -4 0 -27 -199 -52 -229 -29 -11 8 -13 8 -8 0 4 -7 -10 -10 -42 -10 l-49 1
-1 83 c-1 45 -2 86 -2 90 -1 4 -1 62 0 129 l1 122 28 3 c28 3 196 1 210 -3z"/>
<path d="M8690 7833 c0 -4 -30 -8 -67 -7 -38 0 -72 -2 -78 -5 -5 -3 -21 -7
-35 -9 -14 -1 -37 -7 -51 -11 -18 -6 -31 -5 -39 2 -10 9 -11 9 -6 0 6 -12 -5
-18 -26 -14 -5 0 -8 -4 -8 -10 0 -6 -7 -9 -15 -5 -8 3 -15 2 -15 -2 0 -6 -64
-42 -97 -54 -4 -2 -17 -12 -28 -24 -12 -12 -25 -23 -31 -25 -5 -2 -26 -23 -46
-46 -20 -23 -39 -39 -42 -37 -3 2 -4 1 -1 -2 2 -4 -4 -19 -14 -33 -23 -34 -56
-104 -53 -113 1 -5 -2 -8 -8 -8 -6 0 -9 -3 -8 -7 2 -10 -13 -75 -20 -88 -16
-26 -22 -247 -9 -325 8 -50 24 -100 38 -116 6 -8 9 -14 5 -14 -7 0 41 -89 61
-112 9 -9 12 -22 7 -30 -4 -7 -4 -10 -1 -7 4 3 41 -27 82 -67 41 -40 84 -76
95 -79 11 -4 20 -11 20 -16 0 -5 3 -8 8 -7 4 1 25 -6 47 -16 22 -10 51 -20 65
-22 14 -3 39 -9 55 -14 78 -24 244 -27 340 -6 47 10 143 40 175 55 35 16 47
25 94 67 l26 23 -26 28 c-33 36 -97 134 -97 150 0 7 -4 10 -8 7 -4 -2 -10 4
-14 15 -12 39 -31 44 -59 14 -14 -15 -26 -24 -26 -18 0 5 -6 1 -13 -9 -7 -9
-19 -18 -27 -19 -8 -2 -19 -5 -25 -9 -41 -25 -224 -24 -289 2 -31 12 -87 56
-81 63 3 4 2 5 -1 2 -10 -7 -45 15 -39 24 3 5 -2 12 -11 15 -15 6 -61 96 -67
131 -1 11 -6 25 -9 31 -8 11 -4 146 5 179 3 11 11 34 18 50 7 17 13 32 13 35
8 36 102 134 118 124 6 -4 8 -3 5 3 -8 13 41 36 55 27 7 -4 8 -2 4 4 -6 11 0
13 68 27 11 2 27 -1 35 -8 12 -10 13 -9 7 1 -7 11 4 13 59 8 66 -5 135 -31
201 -75 l31 -21 45 73 c63 99 109 187 99 187 -4 0 -20 11 -35 25 -14 13 -27
25 -29 25 -34 8 -47 14 -47 21 0 5 -3 8 -7 7 -5 -1 -19 4 -33 12 -14 7 -38 15
-54 17 -17 2 -32 7 -35 11 -4 4 -17 7 -31 7 -14 -1 -29 1 -35 4 -5 3 -21 5
-35 5 -14 1 -31 5 -37 9 -7 5 -13 5 -13 0z"/>
<path d="M9193 7792 c-17 -3 -23 -10 -23 -28 0 -13 -6 -24 -12 -24 -10 0 -10
-2 0 -9 16 -9 23 -190 10 -228 -4 -13 -3 -25 3 -29 7 -4 6 -10 -1 -19 -6 -8
-7 -16 -2 -19 9 -6 8 -53 -2 -63 -2 -3 -1 -16 4 -29 6 -14 6 -26 -1 -29 -5 -4
-6 -11 -3 -17 4 -6 8 -88 9 -182 2 -94 7 -192 12 -218 6 -26 8 -50 5 -53 -3
-3 -1 -5 4 -5 10 0 40 -69 36 -82 -1 -5 1 -8 6 -8 4 0 13 -13 20 -29 15 -34
84 -108 132 -141 19 -13 38 -29 42 -35 4 -5 8 -7 8 -3 0 4 15 1 34 -7 32 -14
98 -31 156 -41 14 -3 31 -7 38 -9 7 -3 10 0 7 5 -4 6 2 7 17 2 13 -4 44 -7 70
-6 180 7 308 58 390 156 24 28 50 58 59 67 8 10 13 23 11 29 -2 7 1 12 7 12 6
0 10 3 9 8 -1 4 8 34 21 67 13 33 25 71 27 85 2 14 7 35 9 48 4 18 9 687 6
810 -1 29 -3 31 -20 23 -10 -6 -21 -8 -24 -5 -4 5 -238 6 -283 2 -8 -1 -9 -11
-4 -30 6 -19 5 -28 -3 -28 -8 0 -8 -3 -2 -8 12 -8 13 -32 2 -49 -5 -7 -4 -13
2 -13 10 0 7 -31 -4 -50 -3 -6 -3 -10 2 -10 10 0 9 -332 -1 -348 -3 -6 -3 -13
1 -15 10 -7 8 -216 -2 -254 -5 -15 -7 -34 -6 -40 1 -7 -3 -13 -9 -13 -5 0 -9
-3 -8 -7 4 -15 -13 -53 -23 -53 -6 0 -8 -4 -5 -9 9 -14 -73 -62 -110 -64 -19
-1 -34 -5 -34 -8 0 -6 -21 -5 -95 4 -74 9 -150 93 -170 184 -12 56 -13 103 -4
109 5 3 6 11 2 17 -11 18 -10 217 1 210 5 -4 6 -1 1 8 -13 19 -12 169 0 169 7
0 7 3 0 8 -13 9 -17 62 -4 62 6 0 7 5 3 12 -11 17 -13 68 -3 68 5 0 5 10 1 23
-5 12 -7 44 -6 70 1 30 -2 50 -10 53 -14 5 -261 10 -293 6z"/>
<path d="M10464 7792 c4 -6 -2 -15 -11 -21 -10 -6 -13 -11 -8 -11 8 0 12 -194
13 -607 3 -680 2 -654 16 -645 16 9 76 9 76 -1 0 -4 5 -5 12 -1 6 4 57 7 113
6 74 -1 102 2 103 11 1 6 3 84 5 172 2 88 5 163 6 166 1 5 118 5 152 0 4 -1
22 -25 40 -53 18 -29 36 -55 39 -58 14 -13 140 -211 140 -220 0 -6 4 -9 9 -5
6 3 14 -3 20 -12 6 -10 11 -13 11 -8 0 10 132 10 157 0 7 -2 15 0 18 5 3 6 15
6 30 0 15 -6 27 -6 30 1 4 5 12 6 18 2 18 -11 47 -11 40 0 -4 6 0 8 10 4 10
-3 17 -4 17 -1 0 21 -102 186 -165 265 -11 14 -27 36 -35 49 -8 12 -23 33 -32
45 -23 30 -23 32 11 50 17 8 47 31 68 50 21 19 42 35 46 35 5 0 6 4 3 8 -3 5
8 23 24 40 16 18 27 32 25 32 -2 0 3 19 11 43 9 23 17 49 19 57 2 8 4 15 6 15
6 0 6 187 -1 220 -16 78 -20 88 -50 142 -35 62 -65 93 -127 133 -23 15 -40 30
-37 33 4 3 -2 6 -12 6 -11 0 -26 1 -34 4 -14 4 -24 7 -67 24 -10 3 -24 5 -30
4 -7 -1 -13 2 -13 6 0 9 -17 10 -213 13 -71 1 -131 0 -134 -3 -3 -3 -16 -2
-29 3 -13 5 -24 6 -24 2 0 -4 -50 -5 -111 -2 -61 3 -113 2 -116 -3 -2 -4 -13
-2 -25 4 -13 7 -18 7 -14 1z m591 -302 c99 -33 139 -86 137 -182 -1 -61 -26
-123 -44 -112 -7 4 -8 3 -4 -5 4 -6 0 -14 -11 -18 -10 -4 -24 -13 -32 -21 -7
-7 -20 -11 -27 -8 -8 3 -14 2 -14 -3 0 -4 -6 -8 -12 -9 -92 -10 -108 -10 -108
1 0 8 -3 8 -8 2 -6 -9 -56 -12 -127 -6 -20 1 -21 7 -21 184 0 100 4 184 8 187
15 11 224 3 263 -10z"/>
<path d="M12064 7789 c-2 -4 -13 -6 -24 -4 -12 2 -18 0 -15 -6 4 -5 1 -9 -6
-9 -7 0 -10 -3 -6 -6 5 -6 0 -24 -29 -99 -4 -11 -8 -22 -9 -25 -1 -3 -7 -18
-13 -33 -7 -16 -12 -33 -12 -38 0 -5 -5 -9 -12 -9 -6 0 -8 -3 -5 -7 4 -3 3
-11 -1 -17 -5 -6 -19 -40 -32 -76 -13 -36 -26 -69 -30 -75 -4 -5 -12 -30 -19
-55 -18 -64 -52 -140 -62 -140 -5 0 -8 -3 -7 -7 3 -16 -15 -63 -24 -63 -5 0
-6 -4 -3 -10 3 -5 -4 -31 -15 -57 -12 -27 -23 -55 -25 -64 -8 -41 -75 -191
-90 -201 -5 -4 -7 -8 -3 -8 4 0 -2 -24 -13 -52 -12 -29 -22 -57 -23 -63 -11
-44 -19 -65 -27 -65 -5 0 -8 -3 -8 -7 1 -5 0 -10 -1 -13 -1 -3 -3 -12 -5 -20
-2 -8 -7 -24 -11 -34 -5 -14 -4 -17 4 -12 7 4 12 2 12 -6 0 -9 3 -9 10 2 5 8
10 11 10 5 0 -5 23 -10 50 -10 28 -1 50 3 50 7 0 5 8 5 18 1 14 -7 96 -9 160
-4 10 1 30 34 37 61 0 3 11 37 25 75 13 39 23 72 23 75 -1 3 3 12 7 20 7 13
43 15 247 14 131 -1 241 -2 244 -3 4 0 28 -56 54 -123 l48 -123 168 0 c109 0
165 3 160 10 -4 6 -13 28 -20 50 -8 22 -24 63 -37 92 -13 28 -24 55 -24 59 0
4 -17 51 -39 103 -55 138 -54 136 -55 141 -1 3 -7 15 -14 28 -7 12 -11 22 -8
22 3 0 -1 12 -9 27 -8 15 -12 30 -9 35 3 4 0 8 -5 8 -6 0 -11 6 -11 13 0 6 -7
25 -15 41 -8 15 -12 32 -9 37 3 5 1 9 -5 9 -10 0 -27 38 -23 53 1 4 -2 7 -8 7
-6 0 -9 3 -8 8 0 4 -8 27 -20 52 -12 25 -22 50 -22 57 0 6 -6 24 -14 40 -31
62 -48 113 -43 127 4 9 1 15 -5 13 -7 -1 -13 3 -13 8 -1 6 -10 28 -20 50 -9
22 -18 45 -20 50 -1 6 -13 33 -26 60 -12 28 -22 55 -21 62 3 16 -30 23 -91 20
-26 -1 -47 1 -47 5 0 4 -9 4 -21 0 -11 -4 -45 -5 -75 -2 -30 3 -57 3 -60 -1z
m170 -497 c14 -46 39 -113 55 -150 15 -37 28 -69 29 -72 0 -3 5 -18 11 -33 6
-16 11 -30 11 -31 0 -5 -282 -6 -290 -1 -9 6 17 87 32 96 5 3 9 8 7 10 -3 5
32 111 41 124 4 6 18 45 31 87 29 92 36 89 73 -30z"/>
<path d="M13254 7765 c-4 -8 -9 -13 -13 -10 -10 5 -8 -42 2 -51 4 -4 2 -13 -4
-21 -9 -9 -8 -13 0 -13 8 0 9 -6 3 -17 -5 -10 -7 -24 -4 -32 3 -8 0 -11 -7 -7
-6 4 -11 2 -11 -3 0 -6 5 -11 11 -11 5 0 7 -4 4 -10 -3 -5 0 -10 7 -10 9 0 9
-3 -2 -10 -13 -9 -13 -10 0 -10 9 0 11 -3 5 -8 -12 -9 -13 -52 -1 -71 7 -11 5
-13 -9 -7 -15 5 -16 4 -5 -9 7 -8 9 -15 4 -15 -5 0 -3 -4 4 -9 11 -7 11 -11
-2 -24 -14 -14 -14 -16 1 -22 15 -5 15 -7 3 -15 -13 -9 -13 -10 0 -10 13 0 13
-1 0 -10 -13 -9 -13 -11 -1 -19 12 -8 12 -12 2 -25 -11 -12 -11 -16 -1 -16 8
0 9 -4 3 -12 -8 -12 -10 -29 -3 -43 5 -13 3 -52 -4 -63 -4 -7 -2 -19 4 -27 8
-10 9 -15 2 -15 -6 0 -9 -11 -6 -26 3 -19 1 -24 -8 -18 -10 6 -11 5 -1 -8 7
-8 10 -18 6 -21 -3 -4 -1 -7 4 -7 12 0 12 -18 -1 -38 -4 -7 -5 -16 -2 -19 3
-3 1 -12 -6 -20 -6 -8 -7 -13 -2 -12 21 4 26 -2 13 -18 -12 -15 -12 -16 1 -8
13 7 13 6 2 -7 -10 -13 -10 -17 0 -21 10 -4 10 -8 -2 -16 -11 -8 -12 -11 -2
-11 7 0 11 -4 7 -9 -3 -5 0 -13 6 -16 5 -4 8 -12 6 -19 -3 -6 1 -20 9 -30 7
-11 11 -23 8 -27 -3 -5 0 -9 5 -9 6 0 11 -9 11 -20 0 -11 5 -20 11 -20 5 0 7
-4 4 -10 -3 -5 -1 -10 6 -10 8 0 8 -4 -1 -15 -11 -13 -10 -14 4 -9 15 6 21 -5
17 -29 -1 -5 4 -5 10 -1 9 5 10 2 6 -9 -4 -11 -2 -14 9 -10 9 3 14 -1 14 -12
0 -12 6 -16 20 -12 10 3 19 2 18 -2 -2 -18 3 -44 8 -38 3 3 14 -2 25 -11 11
-9 24 -18 29 -18 6 -1 13 -2 16 -3 4 0 0 -8 -7 -18 -13 -15 -12 -15 9 -2 19
12 24 12 31 0 7 -11 9 -11 14 0 4 10 6 10 6 2 1 -7 8 -13 16 -13 8 0 15 -4 15
-9 0 -6 9 -8 20 -6 11 2 20 0 20 -6 0 -5 5 -9 11 -9 6 0 7 6 2 13 -4 6 6 4 21
-7 16 -10 25 -13 22 -7 -10 16 0 13 18 -5 9 -8 16 -11 16 -5 0 6 5 11 11 11 5
0 7 -4 4 -10 -3 -6 1 -7 10 -4 26 10 138 11 159 1 14 -7 16 -6 11 4 -6 9 -3
11 8 6 10 -3 17 -2 17 3 0 5 7 7 15 4 8 -4 15 -1 15 5 0 7 8 7 26 0 22 -8 25
-7 16 3 -8 10 -5 14 11 15 41 4 59 9 65 20 4 5 15 9 25 7 11 -1 16 0 13 3 -10
11 46 49 66 45 4 -1 5 5 2 12 -3 9 3 17 15 21 12 3 19 11 16 16 -4 5 -1 9 5 9
6 0 8 4 5 10 -4 6 1 7 11 3 11 -4 15 -2 11 4 -4 6 4 22 17 36 13 14 21 29 17
34 -3 4 -4 7 -2 6 8 -5 30 32 31 50 0 9 4 17 10 17 5 0 9 3 9 8 -1 4 -1 9 1
12 1 3 3 18 5 34 2 16 9 32 16 36 8 6 8 9 -2 13 -12 4 -11 7 1 16 10 7 11 11
3 11 -9 0 -10 7 -2 27 7 19 6 28 -2 33 -8 6 -8 9 0 15 9 5 9 11 -1 23 -10 12
-10 14 0 8 7 -4 12 -1 12 9 0 9 -3 14 -7 12 -10 -6 -9 46 1 61 4 7 4 12 0 12
-3 0 -1 6 5 14 9 11 9 16 0 22 -8 5 -9 3 -4 -6 5 -9 4 -11 -4 -6 -6 4 -8 13
-4 19 12 20 12 41 0 56 -8 10 -8 13 -1 8 7 -4 14 0 18 8 3 8 0 17 -6 21 -7 5
-8 2 -3 -6 6 -9 4 -11 -4 -5 -9 5 -10 10 -2 18 14 14 14 30 1 22 -6 -3 -7 1
-4 9 3 9 11 13 17 9 6 -4 7 -1 1 8 -5 8 -7 22 -6 32 2 9 -2 17 -9 17 -7 0 -5
6 6 13 14 11 15 16 5 22 -9 6 -11 4 -5 -5 5 -9 4 -11 -4 -6 -6 4 -8 13 -4 19
4 7 8 18 10 26 1 8 8 18 15 22 7 5 8 9 3 9 -6 0 -16 -5 -23 -12 -9 -9 -12 -9
-12 -1 0 7 5 15 10 18 6 3 10 11 10 16 0 6 -4 8 -8 5 -5 -3 -9 1 -9 9 0 8 3
13 6 11 3 -2 12 3 20 11 12 13 11 14 -8 8 -20 -6 -21 -4 -14 12 5 10 9 25 8
33 0 8 4 18 10 22 6 5 5 8 -3 8 -9 0 -11 7 -7 21 5 16 4 19 -5 14 -9 -6 -11
-4 -4 6 5 8 10 25 11 39 3 20 1 22 -7 10 -6 -9 -10 -10 -10 -3 0 6 5 15 10 18
17 11 11 35 -9 35 -11 0 -22 6 -24 13 -4 9 -6 8 -6 -2 -1 -10 -4 -11 -15 -2
-10 8 -16 9 -21 1 -3 -5 -17 -10 -31 -10 -16 0 -23 4 -18 11 3 6 -7 4 -23 -5
-27 -14 -32 -13 -53 1 -13 9 -20 11 -16 5 3 -6 2 -13 -4 -17 -5 -3 -10 -2 -10
3 0 5 -7 9 -15 9 -8 0 -15 -5 -15 -11 0 -5 -7 -1 -16 10 -8 10 -12 13 -8 5 5
-10 1 -12 -17 -6 -13 3 -19 3 -13 -2 8 -5 9 -24 4 -56 -4 -26 -3 -50 1 -53 5
-2 5 -14 0 -26 -4 -12 -5 -38 -1 -59 4 -23 3 -43 -4 -50 -8 -9 -6 -10 8 -5 16
6 17 4 6 -9 -7 -9 -13 -33 -13 -53 0 -30 4 -37 19 -35 19 1 19 1 0 -13 -17
-12 -19 -25 -17 -111 2 -109 3 -123 14 -140 6 -9 3 -11 -10 -6 -15 6 -16 4 -6
-9 7 -8 10 -17 7 -21 -3 -3 -6 -28 -6 -56 1 -33 -3 -51 -11 -51 -8 0 -8 -3 -2
-8 6 -4 11 -20 12 -35 2 -21 -1 -27 -12 -23 -8 3 -17 1 -20 -5 -4 -5 -3 -9 2
-8 19 3 25 -2 15 -13 -6 -7 -12 -17 -14 -23 -1 -5 -6 -9 -10 -8 -4 2 -5 -3 -2
-11 3 -8 0 -17 -5 -21 -6 -3 -8 -11 -5 -17 5 -7 1 -9 -9 -5 -12 5 -17 1 -17
-13 0 -14 -5 -18 -17 -13 -11 5 -14 3 -8 -6 6 -10 2 -11 -15 -6 -17 5 -21 4
-15 -6 6 -9 3 -11 -8 -6 -10 3 -17 2 -17 -2 0 -5 -11 -8 -25 -6 -14 1 -25 -1
-25 -5 0 -4 -10 -6 -22 -4 -13 1 -27 3 -31 3 -5 1 -5 7 -1 14 5 9 4 9 -5 1
-14 -13 -61 -6 -61 9 0 6 -3 7 -6 4 -8 -8 -64 24 -64 36 0 4 -4 5 -10 2 -5 -3
-10 0 -10 9 0 8 -6 17 -12 19 -10 4 -9 6 1 6 10 1 8 6 -6 19 -11 9 -19 25 -17
35 1 9 -2 17 -6 17 -5 0 -7 9 -5 20 2 11 -1 20 -7 20 -6 0 -5 7 3 17 10 11 10
14 2 9 -14 -8 -14 -8 -15 64 0 28 2 53 5 57 4 3 2 14 -4 24 -7 14 -6 19 3 19
9 0 9 3 -2 10 -13 8 -12 11 5 25 11 9 15 14 8 11 -6 -4 -14 -2 -18 4 -3 5 -1
10 6 10 7 0 4 7 -7 15 -15 12 -15 14 -2 9 15 -5 16 -2 9 23 -5 18 -5 37 1 48
6 10 6 15 2 12 -14 -8 -7 102 7 119 9 12 9 13 -2 9 -11 -4 -14 7 -13 53 1 33
4 64 8 70 4 7 0 12 -11 13 -16 0 -16 1 2 9 11 5 16 9 10 9 -5 1 -10 24 -10 51
0 38 4 50 15 50 12 1 11 3 -3 11 -9 6 -15 14 -12 20 4 5 1 10 -4 10 -6 1 -17
2 -23 3 -7 1 -25 -1 -40 -5 -15 -4 -30 -4 -33 1 -3 5 -13 6 -22 3 -12 -5 -14
-3 -8 8 6 11 5 12 -6 2 -7 -7 -19 -13 -27 -13 -8 0 -10 5 -6 13 6 8 3 8 -9 -1
-9 -8 -21 -11 -26 -8 -5 4 -12 2 -16 -3 -8 -14 -36 -1 -28 13 3 6 1 6 -8 -1
-16 -15 -33 -17 -24 -3 3 6 4 10 0 10 -3 0 -8 -7 -11 -15z m33 -300 c0 -8 -4
-12 -9 -9 -5 3 -6 10 -3 15 9 13 12 11 12 -6z m197 -733 c3 -5 -1 -9 -9 -9 -8
0 -12 4 -9 9 3 4 7 8 9 8 2 0 6 -4 9 -8z m67 -39 c13 -16 12 -17 -3 -4 -17 13
-22 21 -14 21 2 0 10 -8 17 -17z"/>
<path d="M14900 7772 c0 -7 -4 -10 -10 -7 -5 3 -10 1 -10 -5 0 -7 -6 -10 -13
-7 -10 4 -13 -2 -9 -19 2 -13 0 -24 -7 -24 -5 0 -8 -7 -4 -16 3 -9 1 -19 -6
-23 -6 -4 -13 -17 -16 -30 -2 -12 -10 -35 -18 -51 -8 -15 -12 -32 -8 -37 3 -4
4 -7 2 -6 -2 2 -10 -2 -18 -8 -11 -10 -11 -15 -1 -27 11 -13 11 -14 0 -8 -8 5
-14 -2 -18 -23 -4 -17 -10 -28 -15 -25 -5 3 -9 -1 -10 -8 -2 -45 -16 -81 -28
-74 -5 3 -7 -3 -4 -14 3 -11 0 -27 -7 -35 -6 -8 -9 -19 -5 -25 3 -5 -2 -10
-12 -10 -15 0 -16 -2 -3 -10 13 -8 8 -14 -11 -12 -3 1 -5 -9 -5 -21 1 -14 -4
-21 -13 -19 -12 3 -12 1 0 -14 13 -16 12 -17 -5 -11 -14 6 -17 4 -9 -5 11 -15
-19 -82 -32 -70 -5 4 -5 2 -1 -5 4 -7 0 -25 -8 -41 -8 -16 -12 -32 -9 -36 4
-3 0 -6 -7 -6 -7 0 -10 -3 -7 -7 4 -3 0 -17 -9 -31 -9 -13 -11 -22 -5 -18 5 4
4 -6 -4 -20 -8 -15 -11 -32 -8 -37 4 -6 0 -8 -9 -5 -12 5 -15 0 -13 -23 2 -22
0 -27 -10 -19 -9 8 -11 4 -7 -15 3 -16 -1 -27 -11 -31 -9 -3 -14 -11 -11 -19
3 -7 -2 -15 -10 -18 -9 -4 -13 -12 -10 -20 3 -8 -2 -19 -10 -26 -8 -7 -12 -20
-9 -28 4 -9 2 -14 -3 -10 -6 3 -11 -4 -11 -16 -2 -17 0 -19 7 -7 7 11 10 11
10 2 0 -7 -6 -15 -14 -18 -9 -3 -12 -12 -9 -21 4 -11 2 -14 -5 -9 -8 5 -12 -1
-12 -18 0 -14 -4 -26 -10 -26 -5 0 -9 -3 -8 -7 1 -5 -2 -20 -6 -35 -6 -19 -13
-25 -24 -21 -15 4 -15 3 -2 -6 8 -6 15 -16 15 -23 1 -7 7 -11 15 -10 8 2 26 5
40 6 14 1 31 6 39 10 9 6 12 5 8 -1 -4 -6 0 -14 9 -17 8 -3 13 -2 10 3 -3 4
19 7 49 5 37 -2 55 1 56 9 0 7 4 3 9 -8 5 -11 9 -14 9 -7 1 6 8 12 17 12 9 0
12 -5 8 -12 -5 -9 -2 -9 9 1 14 11 17 11 17 0 0 -8 7 -6 19 7 10 10 17 27 15
37 -1 9 2 17 8 17 5 0 8 7 4 15 -3 8 -1 15 5 15 6 0 8 4 4 9 -3 6 3 14 12 20
10 6 13 11 8 11 -6 0 -11 9 -11 19 0 11 4 17 8 15 8 -5 10 0 12 29 1 6 6 17
11 24 36 43 38 45 45 33 5 -8 10 -9 14 -1 5 7 15 7 32 1 14 -6 23 -6 20 -2 -3
5 8 9 24 9 17 0 30 -4 30 -9 0 -5 6 -6 12 -2 7 5 29 7 48 5 78 -7 120 -5 124
4 3 6 5 4 5 -3 1 -10 6 -10 21 -2 14 8 20 8 20 0 0 -6 5 -8 13 -3 19 12 37 12
37 1 0 -6 6 -5 15 2 11 9 15 9 15 1 0 -8 5 -9 19 -2 14 8 22 7 31 -4 6 -8 9
-18 6 -23 -3 -6 1 -15 9 -22 18 -15 20 -34 3 -24 -7 4 -8 3 -4 -5 6 -8 12 -9
20 -2 10 8 11 4 8 -19 -3 -19 0 -30 8 -30 7 0 10 -8 7 -19 -3 -12 1 -22 9 -25
8 -3 14 -17 14 -31 0 -14 5 -25 10 -25 6 0 10 -7 10 -16 0 -14 1 -14 16 0 17
18 28 21 19 6 -9 -14 8 -12 24 3 11 10 13 10 7 0 -4 -8 -2 -13 6 -13 8 0 20 6
27 13 7 6 12 8 11 2 -5 -22 1 -26 16 -10 15 15 18 15 34 0 16 -15 18 -14 24 2
5 13 9 14 15 5 7 -12 45 -12 57 1 4 4 13 2 21 -4 10 -9 17 -8 30 2 9 8 14 9
10 3 -4 -7 0 -15 8 -18 13 -4 14 -2 5 14 -6 11 -8 25 -5 30 4 6 0 13 -8 16 -7
2 -14 10 -14 17 -1 22 -8 41 -21 55 -7 8 -10 18 -7 23 4 5 2 9 -3 9 -5 0 -20
28 -32 63 -12 34 -28 65 -34 69 -7 5 -6 8 3 8 11 0 9 4 -5 15 -10 8 -14 15 -9
15 6 0 4 4 -4 9 -12 8 -13 12 -1 25 11 14 10 16 -5 10 -12 -5 -16 -4 -12 3 4
6 3 13 -3 15 -6 2 -11 17 -13 34 -1 21 -6 30 -15 27 -8 -4 -10 0 -5 13 4 11 3
15 -4 11 -7 -4 -10 0 -9 10 2 10 -3 28 -11 40 -8 12 -14 23 -13 25 4 8 -23 63
-33 70 -9 6 -9 8 1 8 10 0 9 4 -3 16 -9 10 -14 25 -12 36 3 10 1 16 -4 12 -5
-3 -10 0 -10 5 -3 26 -18 60 -40 92 -14 20 -16 29 -6 39 10 10 7 12 -11 7 -19
-4 -21 -3 -12 9 9 10 8 17 -5 30 -13 14 -14 19 -3 25 10 6 8 9 -6 9 -15 0 -17
3 -9 11 9 9 8 15 -3 26 -8 8 -12 19 -9 24 4 5 1 9 -4 9 -6 0 -11 7 -11 15 0 8
-5 15 -11 15 -5 0 -8 4 -4 10 3 5 -6 32 -20 60 -14 27 -23 50 -20 50 3 0 0 10
-7 23 -19 33 -37 90 -33 98 3 4 -13 9 -35 11 -22 2 -40 0 -40 -5 0 -4 -5 -5
-11 -1 -6 3 -56 6 -112 6 -69 -1 -104 3 -109 11 -6 9 -8 9 -8 -1z m315 -182
c3 -6 -1 -7 -9 -4 -18 7 -21 14 -7 14 6 0 13 -4 16 -10z m-45 -136 c0 -8 -19
-13 -24 -6 -3 5 1 9 9 9 8 0 15 -2 15 -3z m80 -4 c0 -5 -5 -10 -11 -10 -5 0
-7 5 -4 10 3 6 8 10 11 10 2 0 4 -4 4 -10z m-30 -36 c0 -8 -19 -13 -24 -6 -3
5 1 9 9 9 8 0 15 -2 15 -3z m-169 -43 c1 -9 1 -19 0 -23 0 -5 6 -8 14 -8 9 0
12 -6 9 -15 -4 -8 -1 -15 5 -15 9 0 9 -6 0 -22 l-12 -23 24 20 c22 18 22 18 9
1 -10 -13 -12 -20 -4 -23 7 -2 10 -12 7 -22 -2 -10 3 -25 12 -35 9 -9 15 -22
12 -29 -2 -6 2 -25 10 -40 8 -16 12 -31 9 -35 -3 -3 1 -13 10 -23 8 -9 16 -26
17 -38 1 -11 5 -21 9 -21 4 0 8 -5 8 -11 0 -6 -6 -9 -14 -6 -8 3 -16 1 -18 -5
-3 -7 -9 -6 -18 4 -12 13 -16 13 -29 1 -7 -8 -17 -11 -22 -6 -4 4 -51 6 -103
3 -60 -3 -96 -1 -97 5 -2 20 3 50 11 55 4 3 6 15 5 28 -1 12 2 22 6 22 8 0 34
70 31 83 -1 4 5 7 13 7 8 0 15 5 15 10 0 6 -6 10 -12 10 -10 0 -10 2 0 9 8 4
13 11 13 15 -1 17 12 35 23 29 8 -4 8 -2 -1 7 -9 9 -7 20 6 44 10 17 17 40 16
52 -1 16 3 20 17 16 10 -2 19 -12 19 -21z m233 -211 c-6 -6 -10 -3 -10 10 0
13 4 16 10 10 7 -7 7 -13 0 -20z m1 -259 c3 -5 2 -12 -3 -15 -5 -3 -9 1 -9 9
0 17 3 19 12 6z m-115 -7 c0 -8 -19 -13 -24 -6 -3 5 1 9 9 9 8 0 15 -2 15 -3z"/>
<path d="M15931 7773 c-1 -8 -22 -11 -70 -9 -62 2 -68 1 -63 -16 2 -10 -2 -26
-9 -35 -8 -9 -9 -14 -3 -10 7 4 14 0 18 -8 3 -8 0 -17 -6 -21 -7 -4 -6 -10 3
-16 11 -8 11 -11 1 -15 -9 -4 -10 -8 -2 -18 8 -10 8 -15 -1 -20 -8 -6 -7 -10
2 -16 10 -6 11 -9 2 -9 -7 0 -13 -5 -13 -11 0 -5 4 -8 8 -5 5 3 8 -5 7 -17 -2
-13 -8 -21 -16 -19 -10 1 -9 -2 3 -11 15 -12 15 -14 0 -25 -9 -7 -12 -10 -6
-7 13 6 26 -32 14 -40 -5 -3 -5 -18 -2 -33 10 -40 8 -67 -6 -64 -16 3 -11 -20
8 -35 8 -7 10 -13 4 -13 -13 0 -15 -30 -2 -30 5 0 4 -8 -1 -19 -6 -10 -7 -21
-4 -25 10 -10 11 -46 1 -46 -4 0 -8 -5 -8 -11 0 -5 4 -8 9 -5 12 8 8 -27 -4
-36 -6 -5 -4 -8 5 -8 13 0 13 -1 0 -10 -13 -9 -13 -10 0 -10 13 0 13 -1 0 -10
-11 -7 -11 -10 -2 -10 9 0 10 -5 2 -19 -7 -13 -7 -22 0 -26 7 -4 7 -13 0 -24
-6 -12 -5 -22 1 -28 8 -8 7 -13 0 -17 -8 -5 -8 -13 -1 -27 8 -14 7 -19 -1 -19
-8 0 -7 -5 2 -17 10 -11 10 -14 2 -9 -16 9 -17 -6 -1 -22 9 -9 9 -12 0 -12 -7
0 -12 -5 -12 -11 0 -5 6 -7 13 -3 8 5 8 2 -2 -9 -11 -14 -11 -17 0 -17 12 0
12 -2 0 -9 -10 -7 -11 -10 -1 -16 10 -6 9 -11 -5 -22 -18 -13 -18 -13 1 -14
11 0 14 -3 6 -6 -10 -4 -10 -8 -1 -19 6 -8 8 -14 3 -14 -5 0 -9 -11 -9 -25 0
-14 5 -25 10 -25 6 0 3 -5 -5 -10 -13 -9 -13 -11 0 -20 12 -8 12 -10 1 -10
-10 0 -11 -3 -2 -13 8 -10 7 -17 -1 -25 -9 -9 -9 -12 2 -12 10 0 11 -3 3 -11
-8 -8 -8 -20 -3 -34 5 -13 6 -26 3 -29 -4 -3 -1 -6 5 -6 7 0 12 6 12 13 0 8 3
8 8 2 6 -9 143 -13 162 -6 16 7 39 8 35 2 -2 -4 16 -8 40 -7 24 0 42 3 39 7
-2 4 4 10 13 12 16 4 16 5 -1 6 -20 1 -20 1 0 17 10 8 14 13 8 10 -7 -4 -11
10 -11 39 0 24 3 42 8 40 11 -8 4 24 -9 37 -6 6 -8 18 -3 27 5 9 7 25 5 36 -1
10 3 26 9 34 10 12 9 13 -1 7 -16 -10 -13 25 3 36 6 5 5 8 -2 8 -15 0 -13 50
2 50 5 0 3 5 -5 10 -12 8 -13 13 -2 30 14 24 16 41 1 20 -8 -12 -9 -10 -7 10
2 14 8 28 13 32 6 5 5 8 -2 8 -7 0 -13 11 -13 25 0 14 6 25 13 25 8 0 8 3 2 8
-12 8 -13 22 -2 39 4 6 2 15 -4 19 -8 5 -9 3 -4 -6 5 -9 4 -11 -4 -6 -7 5 -8
13 -4 19 5 7 8 37 7 67 0 30 4 61 10 69 8 11 8 13 -1 8 -8 -5 -11 6 -11 38 1
27 5 42 11 38 6 -4 7 -1 1 8 -14 22 -14 89 -1 89 7 0 6 4 -3 10 -13 9 -13 10
0 10 11 0 12 2 3 8 -13 8 -12 29 1 51 6 9 5 12 -1 8 -7 -4 -11 10 -11 38 -1
29 3 45 11 45 7 0 8 3 2 8 -15 11 -17 74 -2 65 7 -4 6 0 -2 10 -11 14 -11 17
0 17 9 0 10 3 4 8 -16 11 -19 46 -3 36 7 -4 5 2 -5 13 -9 11 -14 23 -10 28 5
4 2 5 -5 1 -7 -4 -9 -13 -5 -19 4 -7 -6 -4 -21 7 -16 10 -25 13 -22 7 10 -16
-66 -14 -83 2 -11 10 -13 10 -7 0 4 -8 1 -13 -8 -13 -8 0 -17 6 -19 13 -4 8
-6 9 -6 0z m-41 -477 c0 -3 -4 -8 -10 -11 -5 -3 -10 -1 -10 4 0 6 5 11 10 11
6 0 10 -2 10 -4z m34 -44 c3 -5 -1 -9 -9 -9 -8 0 -12 4 -9 9 3 4 7 8 9 8 2 0
6 -4 9 -8z m86 -6 c-7 -7 -13 -7 -20 0 -6 6 -3 10 10 10 13 0 16 -4 10 -10z
m40 -36 c0 -5 -5 -10 -11 -10 -5 0 -7 5 -4 10 3 6 8 10 11 10 2 0 4 -4 4 -10z
m-49 -53 c-10 -9 -11 -8 -5 6 3 10 9 15 12 12 3 -3 0 -11 -7 -18z m-33 -632
c-3 -3 -9 2 -12 12 -6 14 -5 15 5 6 7 -7 10 -15 7 -18z"/>
<path d="M5561 6387 c-1 -10 -5 -16 -10 -12 -5 3 -12 1 -15 -4 -3 -5 1 -11 9
-15 8 -3 17 -1 20 4 4 6 12 10 18 10 7 0 6 -4 -3 -10 -14 -9 -12 -11 20 -14 8
0 14 -7 13 -13 -2 -7 2 -13 7 -13 6 0 10 5 10 10 0 6 4 10 10 10 5 0 7 -8 3
-17 -3 -10 -2 -14 2 -10 5 4 15 -3 22 -15 8 -13 12 -16 10 -8 -2 8 3 20 12 27
14 10 14 11 -4 9 -19 -3 -63 40 -57 57 1 5 -2 6 -8 2 -5 -3 -10 -1 -10 4 0 6
-8 11 -17 11 -15 0 -16 -2 -3 -10 13 -8 13 -10 -2 -10 -9 0 -19 6 -21 13 -3 7
-6 4 -6 -6z m59 -22 c11 -13 10 -14 -4 -9 -9 3 -16 10 -16 15 0 13 6 11 20 -6z"/>
<path d="M5517 6333 c6 -16 8 -16 23 1 9 12 8 15 -8 13 -12 0 -18 -6 -15 -14z"/>
<path d="M5546 6331 c-9 -10 -14 -25 -11 -33 6 -15 -11 -27 -49 -35 -15 -3
-13 1 8 18 29 23 30 41 2 45 -10 1 -15 0 -12 -3 3 -4 0 -13 -7 -21 -10 -13 -9
-14 2 -7 10 5 12 4 7 -4 -6 -9 -11 -9 -21 -1 -11 9 -13 6 -11 -13 3 -20 -1
-23 -18 -19 -18 5 -19 3 -8 -10 11 -14 10 -16 -7 -11 -16 4 -19 1 -14 -19 3
-17 2 -20 -5 -9 -8 12 -14 12 -25 3 -7 -7 -16 -9 -19 -6 -3 3 -5 -3 -4 -13 0
-10 -5 -17 -12 -15 -10 2 -10 -2 -2 -18 6 -12 7 -20 1 -20 -5 0 -12 6 -14 13
-3 7 -6 6 -6 -5 -1 -24 17 -32 36 -16 14 11 16 11 8 -1 -6 -11 -4 -13 8 -8 12
4 14 2 10 -11 -6 -14 -5 -15 9 -2 9 8 14 18 12 22 -2 4 5 9 16 13 11 3 20 11
20 16 0 6 4 7 10 4 5 -3 7 0 4 8 -2 7 -12 14 -20 14 -9 0 -13 -6 -9 -16 3 -8
3 -12 -1 -8 -4 4 -12 -1 -19 -10 -11 -15 -14 -15 -36 0 -27 19 -18 23 13 6 18
-10 20 -9 15 5 -4 10 -3 15 2 12 5 -3 11 1 14 8 4 10 16 13 37 11 18 -3 28 0
25 5 -4 6 -1 10 5 10 6 0 8 5 5 10 -4 6 -10 8 -15 5 -5 -3 -12 0 -16 6 -4 8
-3 9 4 5 7 -4 12 -1 12 6 0 8 3 9 8 3 8 -11 44 -17 37 -6 -2 4 9 18 26 31 27
23 41 49 19 35 -5 -3 -10 -1 -10 4 0 6 7 11 15 11 16 0 20 16 6 24 -4 3 -16
-3 -25 -13z m-164 -143 c-7 -7 -12 -8 -12 -2 0 14 12 26 19 19 2 -3 -1 -11 -7
-17z"/>
<path d="M5586 6325 c-9 -26 -7 -32 5 -12 6 10 9 21 6 23 -2 3 -7 -2 -11 -11z"/>
<path d="M5509 6283 c-13 -16 -12 -17 4 -4 16 13 21 21 13 21 -2 0 -10 -8 -17
-17z"/>
<path d="M5713 6261 c0 -11 5 -18 9 -15 4 3 5 11 1 19 -7 21 -12 19 -10 -4z"/>
<path d="M5740 6175 c7 -8 17 -12 22 -9 6 4 5 10 -3 15 -22 14 -33 10 -19 -6z"/>
<path d="M5296 6132 c-3 -6 0 -13 6 -15 7 -3 3 -6 -10 -6 -14 -1 -27 -10 -34
-26 -6 -13 -16 -21 -22 -18 -6 4 -5 -1 3 -11 12 -14 12 -19 1 -29 -10 -10 -12
-9 -7 6 4 9 2 17 -3 17 -6 0 -10 -5 -10 -11 0 -5 -6 -7 -12 -3 -7 4 -5 -2 5
-12 15 -16 20 -17 38 -6 17 11 24 11 37 0 12 -10 14 -10 8 0 -4 6 -2 12 3 12
6 0 11 4 11 10 0 5 -7 7 -15 4 -9 -4 -15 0 -15 7 0 11 -3 11 -11 -1 -9 -12
-10 -12 -5 3 3 10 6 22 6 25 0 4 4 1 9 -7 5 -8 23 -15 40 -16 26 -1 29 1 20
17 -5 10 -17 18 -25 18 -8 0 -12 -4 -9 -10 9 -15 -4 -12 -20 4 -12 11 -10 14
13 14 15 0 33 -5 40 -11 19 -15 41 9 23 26 -12 10 -13 8 -7 -8 6 -16 2 -14
-22 8 -17 16 -32 24 -36 19z"/>
<path d="M5563 6115 c0 -8 4 -12 9 -9 5 3 6 10 3 15 -9 13 -12 11 -12 -6z"/>
<path d="M5764 6068 c0 -24 13 -23 26 1 8 16 7 20 -8 18 -10 0 -18 -9 -18 -19z"/>
<path d="M5184 6021 c4 -6 1 -14 -8 -17 -8 -3 -13 -14 -11 -26 4 -16 2 -18
-10 -8 -18 15 -20 -1 -2 -19 10 -11 9 -12 -3 -5 -15 8 -50 13 -50 7 0 -2 10
-8 23 -13 17 -7 18 -9 5 -9 -10 -1 -19 0 -21 2 -5 3 -67 -60 -67 -68 0 -4 7
-2 15 5 16 13 35 6 34 -13 0 -9 -2 -9 -5 0 -3 7 -12 9 -20 6 -7 -3 -12 -8 -9
-13 2 -4 -7 -5 -20 -2 -15 2 -25 0 -25 -7 0 -7 4 -10 8 -7 12 7 63 -39 54 -49
-4 -5 -1 -5 6 -1 7 4 10 12 7 17 -4 5 -1 9 4 9 6 0 11 4 11 10 0 5 -7 7 -15 4
-8 -4 -15 -1 -15 5 0 6 3 10 8 9 24 -5 107 63 94 78 -4 4 1 4 12 0 13 -5 17
-2 13 9 -4 8 -2 17 4 20 5 4 6 11 3 17 -4 7 -2 8 5 4 9 -6 9 -11 0 -22 -7 -8
-7 -14 -1 -14 12 0 24 28 17 40 -3 5 0 12 6 16 7 4 9 3 5 -4 -3 -6 -2 -13 3
-16 5 -3 11 3 14 14 3 11 11 19 19 17 7 -2 10 -2 5 0 -4 3 -5 9 -1 14 8 13
-10 11 -24 -3 -10 -10 -19 -8 -44 6 -17 11 -28 14 -24 7z m24 -36 c-3 -3 -9 2
-12 12 -6 14 -5 15 5 6 7 -7 10 -15 7 -18z m-25 -40 c-3 -9 -8 -14 -10 -11 -3
3 -2 9 2 15 9 16 15 13 8 -4z m-83 -55 c8 -5 11 -10 5 -10 -5 0 -17 5 -25 10
-8 5 -10 10 -5 10 6 0 17 -5 25 -10z m50 6 c0 -2 -7 -7 -16 -10 -8 -3 -12 -2
-9 4 6 10 25 14 25 6z"/>
<path d="M5336 5881 c9 -9 45 -11 39 -2 -3 6 -14 9 -25 8 -10 -1 -17 -3 -14
-6z"/>
<path d="M4993 5828 c1 -7 -3 -12 -10 -11 -6 1 -14 -4 -17 -13 -3 -8 -2 -13 3
-10 18 11 21 -27 4 -39 -10 -8 -20 -11 -22 -9 -3 2 4 11 15 19 16 12 17 14 3
15 -9 0 -24 -11 -33 -25 -16 -24 -16 -25 14 -21 16 2 37 10 47 17 11 9 14 10
9 2 -4 -8 -1 -13 8 -13 10 0 13 6 10 15 -4 8 -11 15 -17 15 -6 0 -7 3 -4 6 4
4 13 1 22 -6 20 -17 19 -8 -6 34 -22 37 -31 45 -26 24z m12 -28 c3 -5 1 -10
-4 -10 -6 0 -11 5 -11 10 0 6 2 10 4 10 3 0 8 -4 11 -10z"/>
<path d="M5020 5823 c0 -6 8 -21 18 -33 15 -18 19 -20 19 -7 0 9 -9 24 -19 34
-10 9 -18 11 -18 6z"/>
</g>
</svg>
